<svg width="40" height="40" viewBox="0 0 40 40" fill="none" xmlns="http://www.w3.org/2000/svg">
<rect width="40" height="40" rx="20" fill="#F3F4F6"/>
<path d="M25.7543 21.9997C26.9963 21.9997 28.0032 23.0065 28.0032 24.2486V24.824C28.0032 25.7183 27.6836 26.5831 27.1021 27.2625C25.5327 29.096 23.1455 30.0008 20.0001 30.0008C16.8543 30.0008 14.4682 29.0957 12.9019 27.2614C12.3222 26.5825 12.0037 25.719 12.0037 24.8262V24.2486C12.0037 23.0065 13.0105 21.9997 14.2525 21.9997H25.7543ZM25.7543 23.4997H14.2525C13.8389 23.4997 13.5037 23.835 13.5037 24.2486V24.8262C13.5037 25.3619 13.6948 25.88 14.0426 26.2874C15.2959 27.755 17.2618 28.5008 20.0001 28.5008C22.7384 28.5008 24.706 27.755 25.9625 26.2871C26.3114 25.8795 26.5032 25.3605 26.5032 24.824V24.2486C26.5032 23.835 26.1679 23.4997 25.7543 23.4997ZM20.0001 10.0044C22.7615 10.0044 25.0001 12.243 25.0001 15.0044C25.0001 17.7658 22.7615 20.0044 20.0001 20.0044C17.2387 20.0044 15.0001 17.7658 15.0001 15.0044C15.0001 12.243 17.2387 10.0044 20.0001 10.0044ZM20.0001 11.5044C18.0671 11.5044 16.5001 13.0714 16.5001 15.0044C16.5001 16.9374 18.0671 18.5044 20.0001 18.5044C21.9331 18.5044 23.5001 16.9374 23.5001 15.0044C23.5001 13.0714 21.9331 11.5044 20.0001 11.5044Z" fill="#4B5563"/>
</svg>
